<svg xmlns="http://www.w3.org/2000/svg" version="1.1" xmlns:xlink="http://www.w3.org/1999/xlink" xmlns:svgjs="http://svgjs.dev/svgjs" width="421" height="421"><svg width="421" height="421" viewBox="0 0 421 421" fill="none" xmlns="http://www.w3.org/2000/svg">
<path d="M214.18 75.0734C235.707 77.676 257.306 79.6396 278.949 80.9615L304.71 84.6416C336.358 89.7937 385.671 101.57 408.488 125.122C415.848 133.219 418.056 140.579 418.792 151.619V188.42L418.056 210.5V266.437C417.32 277.477 418.056 294.406 415.848 305.446C412.168 318.694 400.392 328.262 389.351 334.886C316.486 376.839 174.435 378.311 94.2098 356.967C64.7692 349.607 22.0804 334.886 5.88808 307.654L2.94402 298.822L2.20801 272.325V204.612L2.94402 188.42C2.94402 179.587 2.20801 145.731 4.41605 140.579L7.36011 131.747C11.7762 121.442 21.3444 114.818 30.9126 109.666C72.1293 86.1136 167.075 78.7535 214.18 75.0734Z" fill="#FF4B4B"></path>
<path d="M207.556 75.8094L214.18 75.0734C235.891 75.3271 257.548 77.2959 278.949 80.9615L304.71 84.6416C336.358 89.7937 385.671 101.57 408.488 125.122C415.848 133.219 418.056 140.579 418.792 151.619L418.056 152.355C415.848 154.563 414.376 158.243 413.64 160.451L406.28 169.283C387.143 189.156 351.079 200.932 324.582 205.348C311.334 208.292 299.558 214.916 286.309 216.388C273.797 217.86 261.285 214.18 248.773 216.388C240.677 217.86 234.788 223.012 225.956 223.012C217.124 223.012 209.028 217.124 200.196 215.652C186.947 214.18 172.227 214.916 158.243 214.18C149.411 214.18 141.315 212.708 132.482 211.972C94.9457 205.348 52.9929 196.516 23.5524 172.227C11.7762 163.395 5.88804 155.299 4.41602 140.579L7.36007 131.747C11.7762 121.442 21.3443 114.818 30.9125 109.666C72.1293 86.1136 129.538 79.4895 175.907 76.5455L207.556 75.8094Z" fill="#FFAF9F"></path>
<path d="M209.764 76.5455L212.708 72.8654C220.804 63.2972 234.052 52.257 247.301 50.785H250.245C250.245 52.257 249.509 52.993 248.773 52.993L239.204 55.9371C228.9 60.3532 221.54 66.9773 214.18 75.0734C213.444 77.2815 214.18 80.2255 214.916 82.4336C218.596 90.5297 223.748 97.1539 228.164 104.514C233.829 104.168 239.483 105.353 244.533 107.942C249.583 110.532 253.844 114.432 256.869 119.234C259.361 123.735 260.629 128.811 260.549 133.955C260.549 139.843 259.077 144.259 256.869 148.675C250.245 157.507 244.357 162.659 233.316 164.131C225.956 164.867 217.86 163.395 211.236 158.243C215.601 154.531 218.819 149.652 220.514 144.178C222.208 138.703 222.309 132.86 220.804 127.33C218.978 120.878 215.103 115.195 209.764 111.138C205.242 107.808 199.899 105.772 194.308 105.25C197.252 98.6259 200.196 91.2657 203.876 85.3776C205.348 82.4336 206.82 79.4895 209.764 76.5455Z" fill="#50211D"></path>
<path d="M211.236 79.4895C214.916 89.0577 220.068 96.4178 224.484 105.25C219.332 106.722 215.652 108.93 211.236 112.61C207.439 109.336 202.886 107.059 197.988 105.986C201.668 96.4178 205.348 88.3217 211.236 79.4895Z" fill="#FFAF9F"></path>
<path d="M236.996 111.874L240.677 113.346C244.357 114.818 248.037 117.762 248.773 121.442C249.509 123.65 248.773 124.386 248.037 125.858C245.093 124.386 245.093 122.178 242.885 119.97L235.524 114.818L236.996 111.874Z" fill="#FFECD3"></path>
<path d="M194.308 105.25C200.798 105.785 206.942 108.405 211.82 112.719C216.699 117.033 220.051 122.809 221.376 129.185C222.701 135.562 221.928 142.196 219.171 148.096C216.415 153.997 211.824 158.847 206.084 161.923C203.553 163.317 200.822 164.31 197.988 164.867C192.163 166.437 185.997 166.18 180.323 164.131C177.905 163.001 175.672 161.512 173.699 159.715C170.934 157.88 168.455 155.648 166.339 153.091C163.421 148.691 161.65 143.63 161.187 138.371C160.535 132.242 161.822 126.064 164.867 120.706C167.177 116.549 170.46 113.014 174.435 110.402C178.415 107.725 182.94 105.965 187.683 105.25C189.883 104.98 192.108 104.98 194.308 105.25Z" fill="#FF4B4B"></path>
<path d="M181.059 114.082L181.795 114.818L183.267 116.29L182.531 118.498L178.851 122.178L174.435 128.802C172.963 128.802 172.227 128.066 172.227 127.33L171.491 124.386C172.963 119.97 177.379 116.29 181.059 114.082Z" fill="#FFECD3"></path>
<path d="M211.236 158.243C217.86 163.395 225.956 164.867 233.317 164.131C244.357 162.659 250.245 157.507 256.869 148.675C260.549 150.883 265.701 153.091 267.909 156.771C268.645 158.243 269.381 159.715 268.645 161.923C267.173 165.603 262.021 168.547 258.341 170.019C235.525 181.059 189.156 180.323 164.867 171.491C160.451 170.019 153.827 167.075 152.355 162.659C150.883 160.451 151.619 158.243 152.355 156.035C153.827 151.619 158.979 149.411 163.395 147.939C165.143 151.614 167.651 154.875 170.755 157.507C174.51 160.997 179.057 163.523 184.004 164.867C188.302 166.144 192.839 166.396 197.252 165.603C202.497 164.47 207.333 161.925 211.236 158.243Z" fill="#483A41"></path>
<path d="M117.762 94.9458H119.234C120.706 94.9458 121.442 94.9458 122.178 96.4178V97.8899C122.178 100.834 118.498 101.57 116.29 102.306L101.57 104.514C82.4336 108.93 61.0892 114.818 44.8969 125.122C37.5367 129.538 30.9126 135.427 28.7046 143.523C27.9686 148.675 28.7046 153.091 31.6486 157.507C36.8007 164.867 44.8969 170.755 53.729 174.435C66.9773 181.059 81.6976 184.003 95.6818 188.42C111.874 193.572 127.33 200.932 144.259 202.404C160.451 203.14 175.907 198.724 192.1 200.932C202.404 202.404 210.5 207.556 220.804 209.028C231.844 211.972 238.469 203.876 249.509 202.404C261.285 200.196 273.797 204.612 286.309 203.14C298.822 201.668 309.126 194.308 320.902 190.628C340.774 183.267 359.175 183.267 377.575 170.755C383.463 167.075 388.615 161.923 389.351 154.563C391.559 143.523 382.727 133.955 373.895 128.066C370.215 125.858 363.591 123.65 361.383 119.97L360.647 117.026L362.119 116.29C365.063 115.554 369.479 118.498 371.687 119.234L377.575 122.914C386.407 128.802 394.504 137.635 396.712 147.939C397.448 154.563 395.976 160.451 392.295 165.603C382.727 178.851 365.063 185.476 350.343 189.892C341.51 192.1 332.678 193.572 324.582 196.516C312.806 200.932 301.766 207.556 288.517 209.764C275.269 211.236 261.285 207.556 248.037 209.764C241.413 210.5 235.524 215.652 228.164 216.388C220.068 217.86 211.972 213.444 203.876 210.5L191.364 207.556C176.643 206.084 161.923 210.5 147.203 209.028C128.802 208.292 111.874 200.196 94.2098 195.044L56.6731 184.003C50.6189 181.295 44.9312 177.833 39.7448 173.699C31.6486 168.547 24.2885 161.187 22.8165 150.883C21.3444 143.523 23.5525 136.899 27.9686 131.01C43.4248 111.138 93.4738 98.6259 117.762 94.9458Z" fill="#FFECD3"></path>
<path d="M2.20801 261.285C2.20801 261.285 5.88808 270.117 9.56815 274.533L17.6643 282.629L27.9685 289.254L42.6888 298.086C77.311 316.571 115.42 327.602 154.563 330.47C210.987 337.938 268.283 335.447 323.846 323.11C351.815 315.014 387.879 303.974 408.488 281.157L418.056 266.437C417.32 277.477 418.056 294.406 415.848 305.446C412.168 318.694 400.392 328.262 389.351 334.886C316.486 376.839 174.435 378.311 94.2098 356.967C64.7692 349.607 22.0804 334.886 5.88808 307.654L2.94402 298.822L2.20801 270.853V261.285Z" fill="#50211D"></path>
<path d="M131.01 272.325L176.643 277.477C223.012 280.421 278.213 278.213 323.846 266.437V323.11C260.446 337.095 194.898 338.346 131.01 326.79V272.325Z" fill="#FFAF9F"></path>
<path d="M4.41605 140.579C5.88808 155.299 11.7762 163.395 23.5524 172.227C52.993 196.516 94.9458 205.348 132.482 211.972C131.01 231.844 131.01 251.717 131.01 272.325C97.8898 265.701 62.5612 257.605 33.8566 238.469C24.5842 232.221 16.3824 224.516 9.56815 215.652L2.20801 204.612L2.94402 188.42C2.94402 179.587 2.20801 145.731 4.41605 140.579ZM418.792 151.619V188.42L418.056 210.5L414.376 217.86C397.448 245.093 353.287 259.813 323.846 266.437L324.582 205.348C351.079 200.932 387.143 189.156 406.28 169.283L413.64 160.451C414.376 158.243 415.848 154.563 418.056 152.355L418.792 151.619Z" fill="#483A41"></path>
</svg><style>@media (prefers-color-scheme: light) { :root { filter: none; } }
@media (prefers-color-scheme: dark) { :root { filter: none; } }
</style></svg>