<svg width="654" height="536" viewBox="0 0 654 536" fill="none" xmlns="http://www.w3.org/2000/svg">
<g clip-path="url(#clip0_191_348)">
<path d="M29.464 519V480.728L-0.744 428.248V426.84H23.192L45.976 468.952L37.656 469.08L59.032 426.84H82.712V428.248L52.12 480.6V519H29.464ZM79.102 519L89.342 458.584C90.4513 451.928 92.2433 446.467 94.718 442.2C97.1927 437.933 100.265 434.605 103.934 432.216C107.689 429.827 112.083 428.163 117.118 427.224C122.153 426.285 127.785 425.816 134.014 425.816C137.598 425.816 141.481 426.029 145.662 426.456C149.843 426.883 153.641 427.48 157.054 428.248L157.31 429.784C156.969 431.32 156.713 433.368 156.542 435.928C156.457 438.488 156.371 441.091 156.286 443.736C156.286 446.381 156.286 448.557 156.286 450.264V519H133.63V452.568C133.63 450.093 133.715 447.832 133.886 445.784C134.142 443.651 134.441 441.731 134.782 440.024L137.726 445.528C136.787 445.272 135.507 445.101 133.886 445.016C132.35 444.845 130.899 444.76 129.534 444.76C125.523 444.76 122.323 445.315 119.934 446.424C117.545 447.448 115.71 449.027 114.43 451.16C113.235 453.293 112.339 456.024 111.742 459.352L101.886 519H79.102ZM95.486 495.448V477.272H144.126V495.448H95.486ZM175.853 519V426.84H195.053L226.925 479.192L217.581 479.32L248.941 426.84H268.141V519H245.485V459.48L250.093 460.76L227.437 498.392H216.557L193.901 461.272L198.637 459.992V519H175.853ZM316.275 487.512H299.891V468.056H314.995C319.176 468.056 322.376 467.203 324.595 465.496C326.899 463.789 328.563 461.315 329.587 458.072L340.595 426.84H363.123V428.248L349.811 463.832C348.275 468.269 345.928 472.28 342.771 475.864C339.614 479.448 335.816 482.307 331.379 484.44C326.942 486.488 321.907 487.512 316.275 487.512ZM287.731 519V426.84H310.387V519H287.731ZM337.779 475.736L364.659 517.592V519H340.339L319.475 483.928L337.779 475.736ZM373.477 519L383.717 458.584C384.826 451.928 386.618 446.467 389.093 442.2C391.568 437.933 394.64 434.605 398.309 432.216C402.064 429.827 406.458 428.163 411.493 427.224C416.528 426.285 422.16 425.816 428.389 425.816C431.973 425.816 435.856 426.029 440.037 426.456C444.218 426.883 448.016 427.48 451.429 428.248L451.685 429.784C451.344 431.32 451.088 433.368 450.917 435.928C450.832 438.488 450.746 441.091 450.661 443.736C450.661 446.381 450.661 448.557 450.661 450.264V519H428.005V452.568C428.005 450.093 428.09 447.832 428.261 445.784C428.517 443.651 428.816 441.731 429.157 440.024L432.101 445.528C431.162 445.272 429.882 445.101 428.261 445.016C426.725 444.845 425.274 444.76 423.909 444.76C419.898 444.76 416.698 445.315 414.309 446.424C411.92 447.448 410.085 449.027 408.805 451.16C407.61 453.293 406.714 456.024 406.117 459.352L396.261 519H373.477ZM389.861 495.448V477.272H438.501V495.448H389.861ZM478.548 520.408C474.964 520.408 472.02 519.299 469.716 517.08C467.412 514.776 466.26 511.789 466.26 508.12C466.26 504.365 467.412 501.379 469.716 499.16C472.02 496.856 474.964 495.704 478.548 495.704C482.303 495.704 485.289 496.856 487.508 499.16C489.812 501.379 490.964 504.365 490.964 508.12C490.964 511.789 489.812 514.776 487.508 517.08C485.289 519.299 482.303 520.408 478.548 520.408ZM486.304 426.84H562.592V446.552H535.712V519H513.056V446.552H486.304V426.84ZM573.323 516.184C573.664 514.648 573.92 512.6 574.091 510.04C574.262 507.48 574.39 504.877 574.475 502.232C574.56 499.587 574.603 497.411 574.603 495.704V426.84H597.387V493.4C597.387 495.96 597.174 498.307 596.747 500.44C596.406 502.488 596.107 504.067 595.851 505.176L593.291 500.568C594.144 500.739 595.083 500.909 596.107 501.08C597.216 501.165 598.368 501.208 599.563 501.208C603.488 501.208 606.603 500.653 608.907 499.544C611.296 498.435 613.088 496.813 614.283 494.68C615.478 492.547 616.331 489.901 616.843 486.744L626.059 426.84H648.715L638.859 489.56C637.92 495.704 636.256 500.781 633.867 504.792C631.563 508.717 628.576 511.832 624.907 514.136C621.323 516.355 617.014 517.933 611.979 518.872C607.03 519.725 601.398 520.152 595.083 520.152C591.499 520.152 587.915 519.939 584.331 519.512C580.747 519.085 577.248 518.488 573.835 517.72L573.323 516.184Z" fill="#FFECD3"/>
<path d="M331.18 75.0734C352.707 77.676 374.306 79.6396 395.949 80.9615L421.71 84.6416C453.358 89.7937 502.671 101.57 525.488 125.122C532.848 133.219 535.056 140.579 535.792 151.619V188.42L535.056 210.5V266.437C534.32 277.477 535.056 294.406 532.848 305.446C529.168 318.694 517.392 328.262 506.351 334.886C433.486 376.839 291.435 378.311 211.21 356.967C181.769 349.607 139.08 334.886 122.888 307.654L119.944 298.822L119.208 272.325V204.612L119.944 188.42C119.944 179.587 119.208 145.731 121.416 140.579L124.36 131.747C128.776 121.442 138.344 114.818 147.913 109.666C189.129 86.1136 284.075 78.7535 331.18 75.0734Z" fill="#FF4B4B"/>
<path d="M324.556 75.8094L331.18 75.0734C352.891 75.3271 374.548 77.2959 395.949 80.9615L421.71 84.6416C453.358 89.7937 502.671 101.57 525.488 125.122C532.848 133.219 535.056 140.579 535.792 151.619L535.056 152.355C532.848 154.563 531.376 158.243 530.64 160.451L523.28 169.283C504.143 189.156 468.079 200.932 441.582 205.348C428.334 208.292 416.558 214.916 403.309 216.388C390.797 217.86 378.285 214.18 365.773 216.388C357.677 217.86 351.788 223.012 342.956 223.012C334.124 223.012 326.028 217.124 317.196 215.652C303.947 214.18 289.227 214.916 275.243 214.18C266.411 214.18 258.315 212.708 249.482 211.972C211.946 205.348 169.993 196.516 140.552 172.227C128.776 163.395 122.888 155.299 121.416 140.579L124.36 131.747C128.776 121.442 138.344 114.818 147.913 109.666C189.129 86.1136 246.538 79.4895 292.907 76.5455L324.556 75.8094Z" fill="#FFAF9F"/>
<path d="M326.764 76.5455L329.708 72.8654C337.804 63.2972 351.052 52.257 364.301 50.785H367.245C367.245 52.257 366.509 52.993 365.773 52.993L356.204 55.9371C345.9 60.3532 338.54 66.9773 331.18 75.0734C330.444 77.2815 331.18 80.2255 331.916 82.4336C335.596 90.5297 340.748 97.1539 345.164 104.514C350.829 104.168 356.483 105.353 361.533 107.942C366.583 110.532 370.844 114.432 373.869 119.234C376.361 123.735 377.629 128.811 377.549 133.955C377.549 139.843 376.077 144.259 373.869 148.675C367.245 157.507 361.357 162.659 350.316 164.131C342.956 164.867 334.86 163.395 328.236 158.243C332.601 154.531 335.819 149.652 337.514 144.178C339.208 138.703 339.309 132.86 337.804 127.33C335.978 120.878 332.103 115.195 326.764 111.138C322.242 107.808 316.899 105.772 311.308 105.25C314.252 98.6259 317.196 91.2657 320.876 85.3776C322.348 82.4336 323.82 79.4895 326.764 76.5455Z" fill="#50211D"/>
<path d="M328.236 79.4895C331.916 89.0577 337.068 96.4178 341.484 105.25C336.332 106.722 332.652 108.93 328.236 112.61C324.439 109.336 319.886 107.059 314.988 105.986C318.668 96.4178 322.348 88.3217 328.236 79.4895Z" fill="#FFAF9F"/>
<path d="M353.996 111.874L357.677 113.346C361.357 114.818 365.037 117.762 365.773 121.442C366.509 123.65 365.773 124.386 365.037 125.858C362.093 124.386 362.093 122.178 359.885 119.97L352.524 114.818L353.996 111.874Z" fill="#FFECD3"/>
<path d="M311.308 105.25C317.798 105.785 323.942 108.405 328.82 112.719C333.699 117.033 337.051 122.809 338.376 129.185C339.701 135.562 338.928 142.196 336.171 148.096C333.415 153.997 328.824 158.847 323.084 161.923C320.553 163.317 317.822 164.31 314.988 164.867C309.163 166.437 302.997 166.18 297.323 164.131C294.905 163.001 292.672 161.512 290.699 159.715C287.934 157.88 285.455 155.648 283.339 153.091C280.421 148.691 278.65 143.63 278.187 138.371C277.535 132.242 278.822 126.064 281.867 120.706C284.177 116.549 287.46 113.014 291.435 110.402C295.415 107.725 299.94 105.965 304.683 105.25C306.883 104.98 309.108 104.98 311.308 105.25Z" fill="#FF4B4B"/>
<path d="M298.059 114.082L298.795 114.818L300.267 116.29L299.531 118.498L295.851 122.178L291.435 128.802C289.963 128.802 289.227 128.066 289.227 127.33L288.491 124.386C289.963 119.97 294.379 116.29 298.059 114.082Z" fill="#FFECD3"/>
<path d="M328.236 158.243C334.86 163.395 342.956 164.867 350.317 164.131C361.357 162.659 367.245 157.507 373.869 148.675C377.549 150.883 382.701 153.091 384.909 156.771C385.645 158.243 386.381 159.715 385.645 161.923C384.173 165.603 379.021 168.547 375.341 170.019C352.525 181.059 306.156 180.323 281.867 171.491C277.451 170.019 270.827 167.075 269.355 162.659C267.883 160.451 268.619 158.243 269.355 156.035C270.827 151.619 275.979 149.411 280.395 147.939C282.143 151.614 284.651 154.875 287.755 157.507C291.51 160.997 296.057 163.523 301.004 164.867C305.302 166.144 309.839 166.396 314.252 165.603C319.497 164.47 324.333 161.925 328.236 158.243Z" fill="#483A41"/>
<path d="M234.762 94.9458H236.234C237.706 94.9458 238.442 94.9458 239.178 96.4178V97.8899C239.178 100.834 235.498 101.57 233.29 102.306L218.57 104.514C199.434 108.93 178.089 114.818 161.897 125.122C154.537 129.538 147.913 135.427 145.705 143.523C144.969 148.675 145.705 153.091 148.649 157.507C153.801 164.867 161.897 170.755 170.729 174.435C183.977 181.059 198.698 184.003 212.682 188.42C228.874 193.572 244.33 200.932 261.259 202.404C277.451 203.14 292.907 198.724 309.1 200.932C319.404 202.404 327.5 207.556 337.804 209.028C348.844 211.972 355.469 203.876 366.509 202.404C378.285 200.196 390.797 204.612 403.309 203.14C415.822 201.668 426.126 194.308 437.902 190.628C457.774 183.267 476.175 183.267 494.575 170.755C500.463 167.075 505.615 161.923 506.351 154.563C508.559 143.523 499.727 133.955 490.895 128.066C487.215 125.858 480.591 123.65 478.383 119.97L477.647 117.026L479.119 116.29C482.063 115.554 486.479 118.498 488.687 119.234L494.575 122.914C503.407 128.802 511.504 137.635 513.712 147.939C514.448 154.563 512.976 160.451 509.295 165.603C499.727 178.851 482.063 185.476 467.343 189.892C458.51 192.1 449.678 193.572 441.582 196.516C429.806 200.932 418.766 207.556 405.517 209.764C392.269 211.236 378.285 207.556 365.037 209.764C358.413 210.5 352.524 215.652 345.164 216.388C337.068 217.86 328.972 213.444 320.876 210.5L308.364 207.556C293.643 206.084 278.923 210.5 264.203 209.028C245.802 208.292 228.874 200.196 211.21 195.044L173.673 184.003C167.619 181.295 161.931 177.833 156.745 173.699C148.649 168.547 141.288 161.187 139.816 150.883C138.344 143.523 140.552 136.899 144.969 131.01C160.425 111.138 210.474 98.6259 234.762 94.9458Z" fill="#FFECD3"/>
<path d="M119.208 261.285C119.208 261.285 122.888 270.117 126.568 274.533L134.664 282.629L144.968 289.254L159.689 298.086C194.311 316.571 232.42 327.602 271.563 330.47C327.987 337.938 385.283 335.447 440.846 323.11C468.815 315.014 504.879 303.974 525.488 281.157L535.056 266.437C534.32 277.477 535.056 294.406 532.848 305.446C529.168 318.694 517.392 328.262 506.351 334.886C433.486 376.839 291.435 378.311 211.21 356.967C181.769 349.607 139.08 334.886 122.888 307.654L119.944 298.822L119.208 270.853V261.285Z" fill="#50211D"/>
<path d="M248.01 272.325L293.643 277.477C340.012 280.421 395.213 278.213 440.846 266.437V323.11C377.446 337.095 311.898 338.346 248.01 326.79V272.325Z" fill="#FFAF9F"/>
<path d="M121.416 140.579C122.888 155.299 128.776 163.395 140.552 172.227C169.993 196.516 211.946 205.348 249.482 211.972C248.01 231.844 248.01 251.717 248.01 272.325C214.89 265.701 179.561 257.605 150.857 238.469C141.584 232.221 133.382 224.516 126.568 215.652L119.208 204.612L119.944 188.42C119.944 179.587 119.208 145.731 121.416 140.579ZM535.792 151.619V188.42L535.056 210.5L531.376 217.86C514.448 245.093 470.287 259.813 440.846 266.437L441.582 205.348C468.079 200.932 504.143 189.156 523.28 169.283L530.64 160.451C531.376 158.243 532.848 154.563 535.056 152.355L535.792 151.619Z" fill="#483A41"/>
</g>
<defs>
<clipPath id="clip0_191_348">
<rect width="654" height="536" fill="white"/>
</clipPath>
</defs>
</svg>
