<svg xmlns="http://www.w3.org/2000/svg" width="278" height="75" fill="none"><g clip-path="url(#a)"><path fill="#FF4B4B" d="M38.16 13.37c3.83.47 7.68.82 11.53 1.05l4.6.66c5.63.92 14.42 3.01 18.48 7.21 1.31 1.44 1.7 2.75 1.84 4.72v6.56l-.13 3.93v9.96c-.14 1.97 0 4.99-.4 6.95-.65 2.36-2.75 4.07-4.72 5.25-12.98 7.47-38.28 7.73-52.58 3.93-5.24-1.3-12.85-3.93-15.73-8.78l-.53-1.58-.13-4.72V36.45l.13-2.88c0-1.58-.13-7.6.27-8.53l.52-1.57c.79-1.84 2.5-3.02 4.2-3.93 7.34-4.2 24.25-5.51 32.65-6.17Z"/><path fill="#FFAF9F" d="m36.98 13.5 1.18-.13c3.86.05 7.72.4 11.53 1.05l4.6.66c5.63.92 14.42 3.01 18.48 7.21 1.31 1.44 1.7 2.75 1.84 4.72l-.13.13c-.4.4-.66 1.05-.8 1.44l-1.3 1.58c-3.41 3.54-9.84 5.64-14.56 6.42-2.36.53-4.45 1.7-6.81 1.97-2.23.26-4.46-.4-6.7 0-1.43.26-2.48 1.18-4.06 1.18-1.57 0-3.01-1.05-4.59-1.31-2.36-.26-4.98-.13-7.47-.26-1.57 0-3.02-.27-4.59-.4-6.69-1.18-14.16-2.75-19.4-7.08-2.1-1.57-3.15-3.01-3.41-5.64l.52-1.57c.79-1.84 2.5-3.02 4.2-3.93 7.34-4.2 17.57-5.38 25.83-5.9l5.64-.13Z"/><path fill="#50211D" d="m37.37 13.64.52-.66c1.45-1.7 3.8-3.67 6.17-3.93h.52c0 .26-.13.39-.26.39l-1.7.52a12.67 12.67 0 0 0-4.46 3.41c-.14.4 0 .92.13 1.32.65 1.44 1.57 2.62 2.36 3.93a5.64 5.64 0 0 1 5.11 2.62 5.54 5.54 0 0 1 0 5.24c-1.18 1.58-2.23 2.5-4.2 2.76a5.47 5.47 0 0 1-3.93-1.05 5.38 5.38 0 0 0-3.01-9.44c.52-1.18 1.04-2.5 1.7-3.54.26-.52.52-1.05 1.05-1.57Z"/><path fill="#FFAF9F" d="M37.63 14.16c.66 1.7 1.57 3.02 2.36 4.59-.92.26-1.57.66-2.36 1.31a5.37 5.37 0 0 0-2.36-1.18 22.7 22.7 0 0 1 2.36-4.72Z"/><path fill="#FFECD3" d="m42.22 19.93.66.26c.65.26 1.3.79 1.44 1.44.13.4 0 .53-.13.8-.53-.27-.53-.66-.92-1.06l-1.31-.92.26-.52Z"/><path fill="#FF4B4B" d="M34.62 18.75a5.38 5.38 0 0 1 .65 10.62 5.24 5.24 0 0 1-3.15-.13c-.43-.2-.82-.47-1.18-.79-.49-.32-.93-.72-1.3-1.18a5.64 5.64 0 0 1-.27-5.77c.41-.74 1-1.37 1.7-1.83.71-.48 1.52-.8 2.37-.92.39-.05.78-.05 1.18 0Z"/><path fill="#FFECD3" d="m32.26 20.32.13.13.26.27-.13.39-.66.66-.78 1.18c-.27 0-.4-.14-.4-.27l-.13-.52c.26-.79 1.05-1.44 1.7-1.84Z"/><path fill="#434141" d="M37.63 28.2a5.47 5.47 0 0 0 3.93 1.04c1.97-.26 3.02-1.18 4.2-2.75.66.39 1.57.78 1.97 1.44.13.26.26.52.13.92-.26.65-1.18 1.18-1.84 1.44-4.06 1.97-12.32 1.83-16.65.26-.79-.26-1.97-.79-2.23-1.57-.26-.4-.13-.79 0-1.18.26-.79 1.18-1.18 1.97-1.45.31.66.76 1.24 1.31 1.7a5.64 5.64 0 0 0 4.72 1.45c.93-.2 1.8-.65 2.5-1.3Z"/><path fill="#FFECD3" d="M20.98 16.91h.26c.26 0 .4 0 .53.27v.26c0 .52-.66.65-1.05.79l-2.63.39c-3.4.79-7.2 1.83-10.1 3.67-1.3.79-2.48 1.84-2.88 3.28-.13.92 0 1.7.53 2.49a9.08 9.08 0 0 0 3.93 3.02c2.36 1.18 4.98 1.7 7.48 2.49 2.88.91 5.63 2.23 8.65 2.49 2.88.13 5.64-.66 8.52-.26 1.84.26 3.28 1.18 5.12 1.44 1.96.52 3.14-.92 5.1-1.18 2.1-.4 4.34.4 6.57.13 2.22-.26 4.06-1.57 6.16-2.23 3.54-1.31 6.82-1.31 10.1-3.54 1.04-.66 1.96-1.57 2.1-2.89.39-1.96-1.19-3.67-2.76-4.72-.66-.39-1.84-.78-2.23-1.44l-.13-.52.26-.13c.52-.13 1.31.39 1.7.52l1.05.66c1.58 1.05 3.02 2.62 3.41 4.45a4.4 4.4 0 0 1-.78 3.15c-1.7 2.36-4.86 3.54-7.48 4.33-1.57.4-3.14.65-4.59 1.18-2.1.79-4.06 1.97-6.42 2.36-2.36.26-4.85-.4-7.21 0-1.18.13-2.23 1.05-3.54 1.18-1.45.26-2.89-.53-4.33-1.05l-2.23-.52c-2.62-.27-5.24.52-7.87.26-3.27-.13-6.29-1.58-9.44-2.5l-6.68-1.96c-1.08-.48-2.1-1.1-3.02-1.84-1.44-.91-2.75-2.23-3.02-4.06-.26-1.31.14-2.5.92-3.54 2.76-3.54 11.67-5.77 16-6.43Z"/><path fill="#50211D" d="M.4 46.55s.65 1.57 1.3 2.36l1.45 1.44 1.83 1.18L7.6 53.1a50.09 50.09 0 0 0 19.93 5.77 86.67 86.67 0 0 0 30.16-1.3c4.98-1.45 11.41-3.42 15.08-7.48l1.7-2.63c-.13 1.97 0 4.99-.39 6.95-.65 2.36-2.75 4.07-4.72 5.25-12.98 7.47-38.28 7.73-52.58 3.93-5.24-1.3-12.85-3.93-15.73-8.78l-.53-1.58-.13-4.98v-1.7Z"/><path fill="#FFAF9F" d="m23.34 48.51 8.13.92c8.26.53 18.1.13 26.22-1.96v10.1a87.32 87.32 0 0 1-34.35.65v-9.7Z"/><path fill="#434141" d="M.79 25.04c.26 2.63 1.3 4.07 3.4 5.64 5.25 4.33 12.72 5.9 19.41 7.08-.26 3.54-.26 7.08-.26 10.75-5.9-1.18-12.2-2.62-17.3-6.03a18.49 18.49 0 0 1-4.34-4.06L.4 36.45l.12-2.88c0-1.58-.13-7.6.27-8.53Zm73.82 1.97v6.56l-.13 3.93-.66 1.31c-3.02 4.85-10.88 7.47-16.13 8.66l.13-10.89c4.72-.78 11.15-2.88 14.56-6.42l1.3-1.58c.14-.39.4-1.04.8-1.44l.13-.13Z"/><path fill="#FFAF9F" d="M102.38 59V43.45L90.1 22.13v-.57h9.73l9.25 17.1-3.38.06 8.69-17.16H124v.57L111.58 43.4V59h-9.2Zm20.16 0 4.16-24.54c.45-2.7 1.18-4.93 2.18-6.66 1.01-1.73 2.26-3.09 3.75-4.06a15 15 0 0 1 5.36-2.02c2.04-.39 4.33-.58 6.86-.58a46.82 46.82 0 0 1 9.36 1l.1.62c-.13.62-.24 1.45-.3 2.5l-.11 3.16V59h-9.2V32.01c0-1 .03-1.92.1-2.75.1-.87.22-1.65.36-2.34l1.2 2.23c-.38-.1-.9-.17-1.56-.2-.63-.08-1.22-.11-1.77-.11-1.63 0-2.93.23-3.9.68a4.69 4.69 0 0 0-2.24 1.92c-.48.87-.85 1.98-1.09 3.33l-4 24.23h-9.26Zm6.66-9.57v-7.38h19.76v7.38H129.2ZM161.85 59V21.56h7.8l12.94 21.27-3.8.05 12.75-21.32h7.8V59h-9.2V34.82l1.87.52-9.2 15.29h-4.43l-9.2-15.08 1.92-.52V59h-9.25Zm57.04-12.8h-6.65v-7.9h6.13c1.7 0 3-.34 3.9-1.04.94-.69 1.61-1.7 2.03-3.01l4.47-12.69h9.16v.57l-5.41 14.46a14.51 14.51 0 0 1-7.5 8.37c-1.8.83-3.84 1.25-6.13 1.25ZM207.3 59V21.56h9.21V59h-9.2Zm20.34-17.58 10.92 17V59h-9.88l-8.48-14.25 7.44-3.33ZM242.13 59l4.16-24.54c.45-2.7 1.18-4.93 2.19-6.66 1-1.73 2.25-3.09 3.74-4.06a15 15 0 0 1 5.35-2.02c2.05-.39 4.34-.58 6.87-.58a46.82 46.82 0 0 1 9.36 1l.1.62c-.13.62-.24 1.45-.3 2.5l-.11 3.16V59h-9.2V32.01c0-1 .03-1.92.1-2.75.1-.87.22-1.65.36-2.34l1.2 2.23c-.38-.1-.9-.17-1.56-.2-.63-.08-1.22-.11-1.77-.11-1.63 0-2.93.23-3.9.68a4.69 4.69 0 0 0-2.24 1.92c-.48.87-.85 1.98-1.09 3.33l-4 24.23h-9.26Zm6.66-9.57v-7.38h19.76v7.38h-19.76Z"/></g><defs><clipPath id="a"><path fill="#fff" d="M0 0h278v75H0z"/></clipPath></defs></svg>