<svg width="75" height="75" fill="none" xmlns="http://www.w3.org/2000/svg"><path d="M38.156 13.374c3.834.464 7.682.813 11.538 1.049l4.59.656c5.637.917 14.422 3.015 18.487 7.211 1.311 1.442 1.704 2.754 1.836 4.72v6.556l-.132 3.934v9.965c-.13 1.967 0 4.982-.393 6.95-.655 2.36-2.753 4.064-4.72 5.244-12.98 7.474-38.287 7.736-52.579 3.934-5.245-1.312-12.85-3.934-15.734-8.785l-.525-1.574-.13-4.72V36.45l.13-2.885c0-1.573-.13-7.605.263-8.522l.524-1.574c.787-1.835 2.491-3.016 4.196-3.933 7.343-4.196 24.257-5.507 32.648-6.163Z" fill="#FF4B4B"/><path d="m36.976 13.505 1.18-.131a73.43 73.43 0 0 1 11.538 1.049l4.59.656c5.637.917 14.422 3.015 18.487 7.211 1.311 1.442 1.705 2.754 1.836 4.72l-.131.131c-.394.394-.656 1.05-.787 1.443l-1.311 1.573c-3.41 3.54-9.834 5.638-14.554 6.425-2.36.524-4.459 1.705-6.819 1.967-2.229.262-4.458-.393-6.687 0-1.442.262-2.491 1.18-4.064 1.18-1.574 0-3.016-1.049-4.59-1.311-2.36-.262-4.982-.131-7.473-.262-1.574 0-3.016-.263-4.59-.394-6.687-1.18-14.16-2.753-19.405-7.08-2.098-1.574-3.147-3.016-3.41-5.638l.525-1.574c.787-1.835 2.491-3.016 4.196-3.933 7.343-4.196 17.57-5.376 25.83-5.9l5.639-.132Z" fill="#FFAF9F"/><path d="m37.369 13.636.524-.655c1.443-1.705 3.803-3.672 6.163-3.934h.524c0 .262-.13.393-.262.393l-1.704.525c-1.836.787-3.147 1.967-4.458 3.409-.132.393 0 .918.13 1.311.656 1.443 1.574 2.623 2.36 3.934a5.637 5.637 0 0 1 5.114 2.622c.444.802.67 1.706.656 2.623 0 1.049-.262 1.835-.655 2.622-1.18 1.573-2.23 2.491-4.196 2.753-1.311.131-2.754-.13-3.934-1.049a5.376 5.376 0 0 0 1.705-5.507 5.506 5.506 0 0 0-1.967-2.884 5.508 5.508 0 0 0-2.754-1.05c.525-1.18 1.05-2.49 1.705-3.54.262-.524.524-1.048 1.049-1.573Z" fill="#50211D"/><path d="M37.631 14.16c.656 1.705 1.574 3.017 2.36 4.59-.918.262-1.573.656-2.36 1.311a5.375 5.375 0 0 0-2.36-1.18c.656-1.704 1.311-3.147 2.36-4.72Z" fill="#FFAF9F"/><path d="m42.22 19.93.656.262c.655.263 1.311.787 1.442 1.443.131.393 0 .524-.131.786-.524-.262-.524-.655-.918-1.049l-1.311-.917.262-.525Z" fill="#FFECD3"/><path d="M34.615 18.75a5.376 5.376 0 0 1 2.098 10.096c-.45.248-.937.425-1.442.524a5.245 5.245 0 0 1-3.147-.13 4.72 4.72 0 0 1-1.18-.787 6.03 6.03 0 0 1-1.311-1.18 5.638 5.638 0 0 1-.918-2.623 5.245 5.245 0 0 1 .656-3.147c.411-.74.996-1.37 1.704-1.835a5.77 5.77 0 0 1 2.36-.918 4.854 4.854 0 0 1 1.18 0Z" fill="#FF4B4B"/><path d="m32.255 20.323.131.132.263.262-.132.393-.655.656-.787 1.18c-.262 0-.393-.131-.393-.262l-.131-.525c.262-.787 1.049-1.442 1.704-1.835Z" fill="#FFECD3"/><path d="M37.631 28.19c1.18.918 2.623 1.18 3.934 1.05 1.967-.263 3.015-1.18 4.196-2.754.655.393 1.573.787 1.966 1.442.131.263.263.525.131.918-.262.656-1.18 1.18-1.835 1.442-4.065 1.967-12.325 1.836-16.652.263-.787-.262-1.967-.787-2.23-1.574-.262-.393-.13-.786 0-1.18.263-.786 1.18-1.18 1.967-1.442a5.114 5.114 0 0 0 1.312 1.704 5.638 5.638 0 0 0 2.36 1.312 5.113 5.113 0 0 0 2.36.13 5.243 5.243 0 0 0 2.491-1.31Z" fill="#434141"/><path d="M20.979 16.914h.262c.262 0 .394 0 .525.262v.263c0 .524-.656.655-1.05.787l-2.622.393c-3.409.787-7.211 1.835-10.096 3.671-1.311.787-2.491 1.836-2.884 3.278-.131.918 0 1.705.524 2.491.918 1.312 2.36 2.36 3.934 3.016 2.36 1.18 4.982 1.705 7.473 2.491 2.885.918 5.639 2.23 8.654 2.492 2.885.13 5.638-.656 8.523-.263 1.836.263 3.278 1.18 5.114 1.443 1.966.524 3.147-.918 5.113-1.18 2.098-.394 4.327.393 6.556.13 2.23-.262 4.065-1.573 6.163-2.228 3.54-1.311 6.818-1.311 10.096-3.54 1.049-.656 1.967-1.574 2.098-2.885.393-1.967-1.18-3.671-2.754-4.72-.655-.394-1.835-.787-2.229-1.443l-.13-.524.261-.131c.525-.131 1.312.393 1.705.524l1.049.656c1.573 1.049 3.016 2.622 3.41 4.458.13 1.18-.132 2.229-.788 3.147-1.704 2.36-4.851 3.54-7.473 4.327-1.574.393-3.147.655-4.59 1.18-2.098.786-4.064 1.966-6.424 2.36-2.36.262-4.852-.394-7.212 0-1.18.131-2.229 1.049-3.54 1.18-1.442.262-2.885-.525-4.327-1.049l-2.23-.525c-2.622-.262-5.244.525-7.866.263-3.278-.131-6.294-1.574-9.44-2.492l-6.688-1.966a14.03 14.03 0 0 1-3.016-1.836c-1.442-.918-2.753-2.229-3.015-4.065-.263-1.31.13-2.49.917-3.54 2.754-3.54 11.67-5.77 15.997-6.425Z" fill="#FFECD3"/><path d="M.393 46.547s.656 1.574 1.311 2.36l1.443 1.443 1.835 1.18 2.623 1.573a50.088 50.088 0 0 0 19.93 5.77 86.672 86.672 0 0 0 30.157-1.312c4.983-1.442 11.408-3.409 15.079-7.474l1.704-2.622c-.13 1.967 0 4.982-.393 6.95-.655 2.36-2.753 4.064-4.72 5.244-12.98 7.474-38.287 7.736-52.579 3.934-5.245-1.312-12.85-3.934-15.734-8.785l-.525-1.574-.13-4.982v-1.705Z" fill="#50211D"/><path d="m23.34 48.514 8.128.918c8.261.524 18.095.131 26.224-1.967v10.096a87.324 87.324 0 0 1-34.353.656v-9.703Z" fill="#FFAF9F"/><path d="M.787 25.044c.262 2.622 1.31 4.064 3.409 5.638 5.245 4.327 12.718 5.9 19.405 7.08-.262 3.54-.262 7.08-.262 10.752-5.9-1.18-12.194-2.622-17.308-6.032a18.487 18.487 0 0 1-4.327-4.064L.394 36.45l.13-2.885c0-1.573-.13-7.605.263-8.522Zm73.82 1.966v6.556l-.132 3.934-.655 1.311c-3.016 4.852-10.883 7.474-16.128 8.654l.131-10.883c4.72-.787 11.146-2.885 14.555-6.425l1.31-1.573c.132-.393.394-1.049.787-1.442l.132-.131Z" fill="#434141"/></svg>