<svg width="421" height="421" fill="none" xmlns="http://www.w3.org/2000/svg"><path d="M214.2 75c21.5 2.7 43.1 4.6 64.7 6l25.8 3.6c31.7 5.2 81 17 103.8 40.5a38.6 38.6 0 0 1 10.3 26.5v36.8l-.7 22.1v56c-.8 11 0 28-2.3 39-3.6 13.2-15.4 22.8-26.4 29.4-73 42-215 43.4-295.2 22-29.4-7.3-72.1-22-88.3-49.2l-3-8.9-.7-26.5v-67.7l.7-16.2c0-8.8-.7-42.7 1.5-47.8l3-8.9c4.4-10.3 14-16.9 23.5-22C72.1 86 167.1 78.7 214.2 75Z" fill="#FF4B4B"/><path d="m207.6 75.8 6.6-.7c21.7.2 43.3 2.2 64.7 5.9l25.8 3.6c31.7 5.2 81 17 103.8 40.5a38.6 38.6 0 0 1 10.3 26.5l-.7.8a22.1 22.1 0 0 0-4.5 8l-7.3 8.9c-19.2 19.9-55.2 31.6-81.7 36-13.3 3-25 9.6-38.3 11-12.5 1.6-25-2.1-37.5 0-8.1 1.6-14 6.7-22.8 6.7-8.9 0-17-5.9-25.8-7.3-13.3-1.5-28-.8-42-1.5-8.8 0-16.9-1.5-25.7-2.2-37.6-6.7-79.5-15.5-109-39.8-11.7-8.8-17.6-16.9-19-31.6l2.9-8.9c4.4-10.3 14-16.9 23.5-22C72.1 86 129.5 79.5 176 76.5l31.7-.7Z" fill="#FFAF9F"/><path d="m209.8 76.5 3-3.6c8-9.6 21.3-20.6 34.5-22.1h3c0 1.5-.8 2.2-1.5 2.2l-9.6 3a71 71 0 0 0-25 19c-.8 2.3 0 5.2.7 7.4 3.7 8.1 8.8 14.8 13.3 22.1a31.7 31.7 0 0 1 28.7 14.7c2.5 4.5 3.7 9.6 3.6 14.8 0 5.8-1.4 10.3-3.6 14.7-6.7 8.8-12.5 14-23.6 15.4-7.3.8-15.4-.7-22-5.9a30.2 30.2 0 0 0-17-53c3-6.6 5.9-14 9.6-19.8 1.4-3 3-6 5.9-8.9Z" fill="#50211D"/><path d="M211.2 79.5c3.7 9.6 8.9 17 13.3 25.8a33.9 33.9 0 0 0-13.3 7.3A30.2 30.2 0 0 0 198 106c3.7-9.6 7.3-17.7 13.2-26.5Z" fill="#FFAF9F"/><path d="m237 111.9 3.7 1.4c3.7 1.5 7.3 4.5 8 8.1.8 2.3 0 3-.7 4.5-3-1.5-3-3.7-5.1-6l-7.4-5 1.5-3Z" fill="#FFECD3"/><path d="M194.3 105.3a30.2 30.2 0 0 1 3.7 59.6c-5.8 1.5-12 1.3-17.7-.8a26.5 26.5 0 0 1-6.6-4.4c-2.8-1.8-5.2-4-7.4-6.6a31.7 31.7 0 0 1-1.4-32.4c2.3-4.2 5.6-7.7 9.5-10.3 4-2.7 8.5-4.4 13.3-5.2 2.2-.2 4.4-.2 6.6 0Z" fill="#FF4B4B"/><path d="m181 114 .8.8 1.5 1.5-.8 2.2-3.6 3.7-4.5 6.6c-1.4 0-2.2-.7-2.2-1.5l-.7-3c1.5-4.3 5.9-8 9.6-10.2Z" fill="#FFECD3"/><path d="M211.2 158.2a30.7 30.7 0 0 0 22.1 6c11-1.5 17-6.7 23.6-15.5 3.6 2.2 8.8 4.4 11 8 .7 1.5 1.5 3 .7 5.2-1.4 3.7-6.6 6.6-10.3 8.1-22.8 11-69.1 10.3-93.4 1.5-4.4-1.5-11-4.4-12.5-8.8-1.5-2.2-.8-4.5 0-6.7 1.4-4.4 6.6-6.6 11-8 1.7 3.6 4.3 6.9 7.4 9.5a31.7 31.7 0 0 0 26.5 8.1c5.2-1.1 10-3.7 14-7.4Z" fill="#483A41"/><path d="M117.8 95h1.4c1.5 0 2.2 0 3 1.4V98c0 3-3.7 3.7-6 4.4l-14.6 2.2C82.4 109 61 114.8 44.9 125.1c-7.4 4.4-14 10.3-16.2 18.4-.7 5.2 0 9.6 3 14a51 51 0 0 0 22 17c13.3 6.6 28 9.5 42 14 16.2 5 31.6 12.4 48.6 13.9 16.2.7 31.6-3.7 47.8-1.5 10.3 1.5 18.4 6.7 28.7 8.1 11 3 17.7-5.1 28.7-6.6 11.8-2.2 24.3 2.2 36.8.7 12.5-1.4 22.8-8.8 34.6-12.5 19.9-7.3 38.3-7.3 56.7-19.8 5.9-3.7 11-8.9 11.8-16.2 2.2-11-6.7-20.6-15.5-26.5-3.7-2.2-10.3-4.4-12.5-8.1l-.8-3 1.5-.7c3-.7 7.4 2.2 9.6 3l5.9 3.6c8.8 5.9 16.9 14.7 19.1 25 .7 6.7-.7 12.6-4.4 17.7-9.6 13.3-27.2 19.9-42 24.3-8.8 2.2-17.6 3.7-25.7 6.6-11.8 4.4-22.8 11-36 13.3-13.3 1.4-27.3-2.2-40.6 0-6.6.7-12.5 5.9-19.8 6.6-8.1 1.5-16.2-3-24.3-5.9l-12.5-3c-14.8-1.4-29.5 3-44.2 1.5-18.4-.7-35.3-8.8-53-14l-37.5-11c-6-2.7-11.8-6.2-17-10.3-8-5.2-15.4-12.5-16.9-22.8-1.5-7.4.8-14 5.2-19.9 15.4-19.9 65.5-32.4 89.8-36Z" fill="#FFECD3"/><path d="M2.2 261.3S6 270 9.6 274.5l8 8.1 10.4 6.7 14.7 8.8a281.2 281.2 0 0 0 111.9 32.4c56.4 7.4 113.7 5 169.2-7.4 28-8 64-19.1 84.7-42l9.6-14.7c-.8 11 0 28-2.3 39-3.6 13.3-15.4 22.9-26.4 29.5-73 42-215 43.4-295.2 22-29.4-7.3-72.1-22-88.3-49.2l-3-8.9-.7-28v-9.5Z" fill="#50211D"/><path d="m131 272.3 45.6 5.2c46.4 3 101.6.7 147.2-11V323c-63.4 14-128.9 15.2-192.8 3.7v-54.5Z" fill="#FFAF9F"/><path d="M4.4 140.6c1.5 14.7 7.4 22.8 19.2 31.6C53 196.5 94.9 205.3 132.5 212c-1.5 19.8-1.5 39.7-1.5 60.3-33.1-6.6-68.4-14.7-97.1-33.8-9.3-6.3-17.5-14-24.3-22.8l-7.4-11 .7-16.3c0-8.8-.7-42.7 1.5-47.8Zm414.4 11v36.8l-.7 22.1-3.7 7.4c-17 27.2-61.1 42-90.6 48.5l.8-61c26.5-4.5 62.5-16.2 81.7-36.1l7.3-8.8c.8-2.3 2.2-6 4.5-8.1l.7-.8Z" fill="#483A41"/></svg>